<svg width="48" height="48" fill="none" xmlns="http://www.w3.org/2000/svg">
  <path clip-rule="evenodd" d="M10 1c4.9707 0 9 4.02932 9 9 0 4.9707-4.0293 9-9 9-4.97068 0-9-4.0293-9-9 0-4.97068 4.02932-9 9-9zM23 19c3.3137 0 6 2.6863 6 6s-2.6863 6-6 6-6-2.6863-6-6 2.6863-6 6-6zM23 35c3.3137 0 6 2.6863 6 6s-2.6863 6-6 6-6-2.6863-6-6 2.6863-6 6-6z" stroke="#2088FF" stroke-width="2" stroke-linecap="round" stroke-linejoin="round"/>
  <path clip-rule="evenodd" d="M41 35c3.3137 0 6 2.6863 6 6s-2.6863 6-6 6-6-2.6863-6-6 2.6863-6 6-6z" stroke="#79B8FF" stroke-width="2" stroke-linecap="round" stroke-linejoin="round"/>
  <path d="M25.0365 23.6069l-3.0692 3.0651-1.4907-1.4854" stroke="#2088FF" stroke-width="2" stroke-linecap="round" stroke-linejoin="round"/>
  <path clip-rule="evenodd" d="M41 19c3.3137 0 6 2.6863 6 6s-2.6863 6-6 6-6-2.6863-6-6 2.6863-6 6-6z" stroke="#2088FF" stroke-width="2" stroke-linecap="round" stroke-linejoin="round"/>
  <path d="M43.0365 23.6069l-3.0692 3.0651-1.4907-1.4854M7 6.81201c0-.78703.86709-1.2656 1.533-.84611l5.1132 3.22102c.6253.3939.622 1.30658-.006 1.69598l-5.11323 3.1705C7.8608 14.4664 7 13.9873 7 13.2035V6.81201zM9 19v15c0 3.866 3.1772 7 7 7h1" stroke="#2088FF" stroke-width="2" stroke-linecap="round" stroke-linejoin="round"/>
  <path d="M16.949 26c.5523 0 1-.4477 1-1s-.4477-1-1-1v2zM8 19.0352C8 22.8817 11.1183 26 14.9648 26v-2C12.2228 24 10 21.7772 10 19.0352H8zM14.9648 26h1.9842v-2h-1.9842v2z" fill="#2088FF"/>
  <path d="M29.0547 25h5.9446" stroke="#2088FF" stroke-width="2" stroke-linecap="round" stroke-linejoin="round"/>
  <path fill-rule="evenodd" clip-rule="evenodd" d="M21 40c.5518 0 1 .4482 1 1 0 .5526-.4482 1-1 1-.5518 0-1-.4474-1-1 0-.5518.4482-1 1-1zM25 40c.5518 0 1 .4482 1 1 0 .5526-.4482 1-1 1-.5518 0-1-.4474-1-1 0-.5518.4482-1 1-1z" fill="#79B8FF"/>
  <path d="M34.0048 41.0069l-1.0126.033" stroke="#79B8FF" stroke-width="2" stroke-linecap="round"/>
</svg>
